%TF.GenerationSoftware,KiCad,Pcbnew,10.0.0*%
%TF.CreationDate,2026-04-13T20:53:55-05:00*%
%TF.ProjectId,wheatstone,77686561-7473-4746-9f6e-652e6b696361,rev?*%
%TF.SameCoordinates,Original*%
%TF.FileFunction,Copper,L1,Top*%
%TF.FilePolarity,Positive*%
%FSLAX46Y46*%
G04 Gerber Fmt 4.6, Leading zero omitted, Abs format (unit mm)*
G04 Created by KiCad (PCBNEW 10.0.0) date 2026-04-13 20:53:55*
%MOMM*%
%LPD*%
G01*
G04 APERTURE LIST*
G04 Aperture macros list*
%AMRotRect*
0 Rectangle, with rotation*
0 The origin of the aperture is its center*
0 $1 length*
0 $2 width*
0 $3 Rotation angle, in degrees counterclockwise*
0 Add horizontal line*
21,1,$1,$2,0,0,$3*%
G04 Aperture macros list end*
%TA.AperFunction,ComponentPad*%
%ADD10C,2.500000*%
%TD*%
%TA.AperFunction,ComponentPad*%
%ADD11C,1.217000*%
%TD*%
%TA.AperFunction,ComponentPad*%
%ADD12R,1.217000X1.217000*%
%TD*%
%TA.AperFunction,ComponentPad*%
%ADD13C,1.600000*%
%TD*%
%TA.AperFunction,SMDPad,CuDef*%
%ADD14R,2.920000X1.270000*%
%TD*%
%TA.AperFunction,SMDPad,CuDef*%
%ADD15R,1.650000X3.430000*%
%TD*%
%TA.AperFunction,ComponentPad*%
%ADD16RotRect,1.300000X1.300000X45.000000*%
%TD*%
%TA.AperFunction,ComponentPad*%
%ADD17C,1.300000*%
%TD*%
%TA.AperFunction,Conductor*%
%ADD18C,0.300000*%
%TD*%
G04 APERTURE END LIST*
D10*
%TO.P,Vp1,1,1_1*%
%TO.N,Vp*%
X146500000Y-95000000D03*
%TD*%
%TO.P,Vs1,1,1_1*%
%TO.N,Vs*%
X151000000Y-95000000D03*
%TD*%
D11*
%TO.P,RV1,3,3_3*%
%TO.N,unconnected-(RV1-Pad3)*%
X155540000Y-88500000D03*
%TO.P,RV1,2,2_2*%
%TO.N,GND*%
X153000000Y-88500000D03*
D12*
%TO.P,RV1,1,1_1*%
%TO.N,Vp*%
X150460000Y-88500000D03*
%TD*%
D10*
%TO.P,Vin1,1,1_1*%
%TO.N,+3.3V*%
X137500000Y-95000000D03*
%TD*%
%TO.P,GND1,1,1_1*%
%TO.N,GND*%
X142000000Y-95000000D03*
%TD*%
D13*
%TO.P,R1,1*%
%TO.N,Vp*%
X140080000Y-89500000D03*
%TO.P,R1,2*%
%TO.N,+3.3V*%
X129920000Y-89500000D03*
%TD*%
D14*
%TO.P,J2,1,Pin_1_1*%
%TO.N,+3.3V*%
X135000000Y-77500000D03*
%TO.P,J2,2,Pin_2_2*%
%TO.N,GND*%
X135000000Y-74500000D03*
D15*
%TO.P,J2,3*%
%TO.N,N/C*%
X128630000Y-81865000D03*
%TO.P,J2,4*%
X128630000Y-70135000D03*
%TD*%
D14*
%TO.P,J3,1,Pin_1_1*%
%TO.N,Vs*%
X154000000Y-74500000D03*
%TO.P,J3,2,Pin_2_2*%
%TO.N,Vp*%
X154000000Y-77500000D03*
D15*
%TO.P,J3,3*%
%TO.N,N/C*%
X160370000Y-70135000D03*
%TO.P,J3,4*%
X160370000Y-81865000D03*
%TD*%
D16*
%TO.P,J1,1,Pin_1_1*%
%TO.N,Vs*%
X147045584Y-74000000D03*
D17*
%TO.P,J1,2,Pin_2_2*%
%TO.N,+3.3V*%
X144500000Y-76545584D03*
%TO.P,J1,3,Pin_3_3*%
%TO.N,GND*%
X141954416Y-74000000D03*
%TD*%
%TO.N,Vs*%
D18*
X157500000Y-89500000D02*
X152000000Y-95000000D01*
X152000000Y-95000000D02*
X151000000Y-95000000D01*
X157500000Y-78000000D02*
X157500000Y-89500000D01*
X154000000Y-74500000D02*
X157500000Y-78000000D01*
%TO.N,Vp*%
X149460000Y-92040000D02*
X149460000Y-89500000D01*
X146500000Y-95000000D02*
X149460000Y-92040000D01*
%TO.N,+3.3V*%
X135420000Y-95000000D02*
X129920000Y-89500000D01*
X137500000Y-95000000D02*
X135420000Y-95000000D01*
%TO.N,Vp*%
X154000000Y-85500000D02*
X154000000Y-77500000D01*
X151000000Y-88500000D02*
X154000000Y-85500000D01*
X150460000Y-88500000D02*
X151000000Y-88500000D01*
X140080000Y-89500000D02*
X149460000Y-89500000D01*
X149460000Y-89500000D02*
X150460000Y-88500000D01*
%TO.N,+3.3V*%
X143545584Y-77500000D02*
X144500000Y-76545584D01*
X135000000Y-78500000D02*
X129920000Y-83580000D01*
X135000000Y-77500000D02*
X143545584Y-77500000D01*
X135000000Y-77500000D02*
X135000000Y-78500000D01*
X129920000Y-83580000D02*
X129920000Y-89500000D01*
%TO.N,Vs*%
X153000000Y-74500000D02*
X152500000Y-74000000D01*
X152500000Y-74000000D02*
X147045584Y-74000000D01*
X154000000Y-74500000D02*
X153000000Y-74500000D01*
%TO.N,GND*%
X135000000Y-74500000D02*
X141454416Y-74500000D01*
X141454416Y-74500000D02*
X141954416Y-74000000D01*
%TD*%
M02*
