%TF.GenerationSoftware,KiCad,Pcbnew,10.0.0*%
%TF.CreationDate,2026-04-13T20:53:56-05:00*%
%TF.ProjectId,wheatstone,77686561-7473-4746-9f6e-652e6b696361,rev?*%
%TF.SameCoordinates,Original*%
%TF.FileFunction,Legend,Top*%
%TF.FilePolarity,Positive*%
%FSLAX46Y46*%
G04 Gerber Fmt 4.6, Leading zero omitted, Abs format (unit mm)*
G04 Created by KiCad (PCBNEW 10.0.0) date 2026-04-13 20:53:56*
%MOMM*%
%LPD*%
G01*
G04 APERTURE LIST*
%ADD10C,0.300000*%
%ADD11C,0.150000*%
%ADD12C,0.254000*%
%ADD13C,0.120000*%
%ADD14C,0.100000*%
%ADD15C,0.200000*%
%ADD16C,0.000000*%
%ADD17C,0.127000*%
G04 APERTURE END LIST*
D10*
X148321428Y-83529003D02*
X148321428Y-85029003D01*
X148321428Y-85029003D02*
X147749999Y-85029003D01*
X147749999Y-85029003D02*
X147607142Y-84957574D01*
X147607142Y-84957574D02*
X147535713Y-84886146D01*
X147535713Y-84886146D02*
X147464285Y-84743289D01*
X147464285Y-84743289D02*
X147464285Y-84529003D01*
X147464285Y-84529003D02*
X147535713Y-84386146D01*
X147535713Y-84386146D02*
X147607142Y-84314717D01*
X147607142Y-84314717D02*
X147749999Y-84243289D01*
X147749999Y-84243289D02*
X148321428Y-84243289D01*
X146821428Y-83529003D02*
X146821428Y-84529003D01*
X146821428Y-84243289D02*
X146749999Y-84386146D01*
X146749999Y-84386146D02*
X146678571Y-84457574D01*
X146678571Y-84457574D02*
X146535713Y-84529003D01*
X146535713Y-84529003D02*
X146392856Y-84529003D01*
X145250000Y-83529003D02*
X145250000Y-84314717D01*
X145250000Y-84314717D02*
X145321428Y-84457574D01*
X145321428Y-84457574D02*
X145464285Y-84529003D01*
X145464285Y-84529003D02*
X145750000Y-84529003D01*
X145750000Y-84529003D02*
X145892857Y-84457574D01*
X145250000Y-83600432D02*
X145392857Y-83529003D01*
X145392857Y-83529003D02*
X145750000Y-83529003D01*
X145750000Y-83529003D02*
X145892857Y-83600432D01*
X145892857Y-83600432D02*
X145964285Y-83743289D01*
X145964285Y-83743289D02*
X145964285Y-83886146D01*
X145964285Y-83886146D02*
X145892857Y-84029003D01*
X145892857Y-84029003D02*
X145750000Y-84100432D01*
X145750000Y-84100432D02*
X145392857Y-84100432D01*
X145392857Y-84100432D02*
X145250000Y-84171860D01*
X144678571Y-84529003D02*
X144321428Y-83529003D01*
X143964285Y-84529003D02*
X144321428Y-83529003D01*
X144321428Y-83529003D02*
X144464285Y-83171860D01*
X144464285Y-83171860D02*
X144535714Y-83100432D01*
X144535714Y-83100432D02*
X144678571Y-83029003D01*
X143392857Y-83529003D02*
X143392857Y-84529003D01*
X143392857Y-85029003D02*
X143464285Y-84957574D01*
X143464285Y-84957574D02*
X143392857Y-84886146D01*
X143392857Y-84886146D02*
X143321428Y-84957574D01*
X143321428Y-84957574D02*
X143392857Y-85029003D01*
X143392857Y-85029003D02*
X143392857Y-84886146D01*
X142678571Y-84529003D02*
X142678571Y-83529003D01*
X142678571Y-84386146D02*
X142607142Y-84457574D01*
X142607142Y-84457574D02*
X142464285Y-84529003D01*
X142464285Y-84529003D02*
X142249999Y-84529003D01*
X142249999Y-84529003D02*
X142107142Y-84457574D01*
X142107142Y-84457574D02*
X142035714Y-84314717D01*
X142035714Y-84314717D02*
X142035714Y-83529003D01*
X140678571Y-84529003D02*
X140678571Y-83314717D01*
X140678571Y-83314717D02*
X140749999Y-83171860D01*
X140749999Y-83171860D02*
X140821428Y-83100432D01*
X140821428Y-83100432D02*
X140964285Y-83029003D01*
X140964285Y-83029003D02*
X141178571Y-83029003D01*
X141178571Y-83029003D02*
X141321428Y-83100432D01*
X140678571Y-83600432D02*
X140821428Y-83529003D01*
X140821428Y-83529003D02*
X141107142Y-83529003D01*
X141107142Y-83529003D02*
X141249999Y-83600432D01*
X141249999Y-83600432D02*
X141321428Y-83671860D01*
X141321428Y-83671860D02*
X141392856Y-83814717D01*
X141392856Y-83814717D02*
X141392856Y-84243289D01*
X141392856Y-84243289D02*
X141321428Y-84386146D01*
X141321428Y-84386146D02*
X141249999Y-84457574D01*
X141249999Y-84457574D02*
X141107142Y-84529003D01*
X141107142Y-84529003D02*
X140821428Y-84529003D01*
X140821428Y-84529003D02*
X140678571Y-84457574D01*
X149214285Y-81899801D02*
X149714285Y-81899801D01*
X149714285Y-81114087D02*
X149714285Y-82614087D01*
X149714285Y-82614087D02*
X148999999Y-82614087D01*
X148214285Y-81114087D02*
X148357142Y-81185516D01*
X148357142Y-81185516D02*
X148428571Y-81256944D01*
X148428571Y-81256944D02*
X148499999Y-81399801D01*
X148499999Y-81399801D02*
X148499999Y-81828373D01*
X148499999Y-81828373D02*
X148428571Y-81971230D01*
X148428571Y-81971230D02*
X148357142Y-82042658D01*
X148357142Y-82042658D02*
X148214285Y-82114087D01*
X148214285Y-82114087D02*
X147999999Y-82114087D01*
X147999999Y-82114087D02*
X147857142Y-82042658D01*
X147857142Y-82042658D02*
X147785714Y-81971230D01*
X147785714Y-81971230D02*
X147714285Y-81828373D01*
X147714285Y-81828373D02*
X147714285Y-81399801D01*
X147714285Y-81399801D02*
X147785714Y-81256944D01*
X147785714Y-81256944D02*
X147857142Y-81185516D01*
X147857142Y-81185516D02*
X147999999Y-81114087D01*
X147999999Y-81114087D02*
X148214285Y-81114087D01*
X147071428Y-81114087D02*
X147071428Y-82114087D01*
X147071428Y-81828373D02*
X146999999Y-81971230D01*
X146999999Y-81971230D02*
X146928571Y-82042658D01*
X146928571Y-82042658D02*
X146785713Y-82114087D01*
X146785713Y-82114087D02*
X146642856Y-82114087D01*
X145071428Y-81542658D02*
X144357143Y-81542658D01*
X145214285Y-81114087D02*
X144714285Y-82614087D01*
X144714285Y-82614087D02*
X144214285Y-81114087D01*
X143071429Y-81114087D02*
X143071429Y-82614087D01*
X143071429Y-81185516D02*
X143214286Y-81114087D01*
X143214286Y-81114087D02*
X143500000Y-81114087D01*
X143500000Y-81114087D02*
X143642857Y-81185516D01*
X143642857Y-81185516D02*
X143714286Y-81256944D01*
X143714286Y-81256944D02*
X143785714Y-81399801D01*
X143785714Y-81399801D02*
X143785714Y-81828373D01*
X143785714Y-81828373D02*
X143714286Y-81971230D01*
X143714286Y-81971230D02*
X143642857Y-82042658D01*
X143642857Y-82042658D02*
X143500000Y-82114087D01*
X143500000Y-82114087D02*
X143214286Y-82114087D01*
X143214286Y-82114087D02*
X143071429Y-82042658D01*
X142357143Y-81114087D02*
X142357143Y-82114087D01*
X142357143Y-82614087D02*
X142428571Y-82542658D01*
X142428571Y-82542658D02*
X142357143Y-82471230D01*
X142357143Y-82471230D02*
X142285714Y-82542658D01*
X142285714Y-82542658D02*
X142357143Y-82614087D01*
X142357143Y-82614087D02*
X142357143Y-82471230D01*
X141785714Y-82114087D02*
X141428571Y-81114087D01*
X141428571Y-81114087D02*
X141071428Y-82114087D01*
X140428571Y-82614087D02*
X140571428Y-82328373D01*
X139857142Y-81185516D02*
X139714285Y-81114087D01*
X139714285Y-81114087D02*
X139428571Y-81114087D01*
X139428571Y-81114087D02*
X139285714Y-81185516D01*
X139285714Y-81185516D02*
X139214285Y-81328373D01*
X139214285Y-81328373D02*
X139214285Y-81399801D01*
X139214285Y-81399801D02*
X139285714Y-81542658D01*
X139285714Y-81542658D02*
X139428571Y-81614087D01*
X139428571Y-81614087D02*
X139642857Y-81614087D01*
X139642857Y-81614087D02*
X139785714Y-81685516D01*
X139785714Y-81685516D02*
X139857142Y-81828373D01*
X139857142Y-81828373D02*
X139857142Y-81899801D01*
X139857142Y-81899801D02*
X139785714Y-82042658D01*
X139785714Y-82042658D02*
X139642857Y-82114087D01*
X139642857Y-82114087D02*
X139428571Y-82114087D01*
X139428571Y-82114087D02*
X139285714Y-82042658D01*
X144749999Y-80199171D02*
X145464285Y-80199171D01*
X145464285Y-80199171D02*
X145535713Y-79484885D01*
X145535713Y-79484885D02*
X145464285Y-79556314D01*
X145464285Y-79556314D02*
X145321428Y-79627742D01*
X145321428Y-79627742D02*
X144964285Y-79627742D01*
X144964285Y-79627742D02*
X144821428Y-79556314D01*
X144821428Y-79556314D02*
X144749999Y-79484885D01*
X144749999Y-79484885D02*
X144678570Y-79342028D01*
X144678570Y-79342028D02*
X144678570Y-78984885D01*
X144678570Y-78984885D02*
X144749999Y-78842028D01*
X144749999Y-78842028D02*
X144821428Y-78770600D01*
X144821428Y-78770600D02*
X144964285Y-78699171D01*
X144964285Y-78699171D02*
X145321428Y-78699171D01*
X145321428Y-78699171D02*
X145464285Y-78770600D01*
X145464285Y-78770600D02*
X145535713Y-78842028D01*
X144035714Y-78699171D02*
X144035714Y-80199171D01*
X143892857Y-79270600D02*
X143464285Y-78699171D01*
X143464285Y-79699171D02*
X144035714Y-79127742D01*
D11*
X145238095Y-91454819D02*
X145571428Y-92454819D01*
X145571428Y-92454819D02*
X145904761Y-91454819D01*
X146238095Y-91788152D02*
X146238095Y-92788152D01*
X146238095Y-91835771D02*
X146333333Y-91788152D01*
X146333333Y-91788152D02*
X146523809Y-91788152D01*
X146523809Y-91788152D02*
X146619047Y-91835771D01*
X146619047Y-91835771D02*
X146666666Y-91883390D01*
X146666666Y-91883390D02*
X146714285Y-91978628D01*
X146714285Y-91978628D02*
X146714285Y-92264342D01*
X146714285Y-92264342D02*
X146666666Y-92359580D01*
X146666666Y-92359580D02*
X146619047Y-92407200D01*
X146619047Y-92407200D02*
X146523809Y-92454819D01*
X146523809Y-92454819D02*
X146333333Y-92454819D01*
X146333333Y-92454819D02*
X146238095Y-92407200D01*
X147666666Y-92454819D02*
X147095238Y-92454819D01*
X147380952Y-92454819D02*
X147380952Y-91454819D01*
X147380952Y-91454819D02*
X147285714Y-91597676D01*
X147285714Y-91597676D02*
X147190476Y-91692914D01*
X147190476Y-91692914D02*
X147095238Y-91740533D01*
X149785714Y-91454819D02*
X150119047Y-92454819D01*
X150119047Y-92454819D02*
X150452380Y-91454819D01*
X150738095Y-92407200D02*
X150833333Y-92454819D01*
X150833333Y-92454819D02*
X151023809Y-92454819D01*
X151023809Y-92454819D02*
X151119047Y-92407200D01*
X151119047Y-92407200D02*
X151166666Y-92311961D01*
X151166666Y-92311961D02*
X151166666Y-92264342D01*
X151166666Y-92264342D02*
X151119047Y-92169104D01*
X151119047Y-92169104D02*
X151023809Y-92121485D01*
X151023809Y-92121485D02*
X150880952Y-92121485D01*
X150880952Y-92121485D02*
X150785714Y-92073866D01*
X150785714Y-92073866D02*
X150738095Y-91978628D01*
X150738095Y-91978628D02*
X150738095Y-91931009D01*
X150738095Y-91931009D02*
X150785714Y-91835771D01*
X150785714Y-91835771D02*
X150880952Y-91788152D01*
X150880952Y-91788152D02*
X151023809Y-91788152D01*
X151023809Y-91788152D02*
X151119047Y-91835771D01*
X152119047Y-92454819D02*
X151547619Y-92454819D01*
X151833333Y-92454819D02*
X151833333Y-91454819D01*
X151833333Y-91454819D02*
X151738095Y-91597676D01*
X151738095Y-91597676D02*
X151642857Y-91692914D01*
X151642857Y-91692914D02*
X151547619Y-91740533D01*
D12*
X159244048Y-90074318D02*
X158820714Y-89469556D01*
X158518333Y-90074318D02*
X158518333Y-88804318D01*
X158518333Y-88804318D02*
X159002143Y-88804318D01*
X159002143Y-88804318D02*
X159123095Y-88864794D01*
X159123095Y-88864794D02*
X159183572Y-88925270D01*
X159183572Y-88925270D02*
X159244048Y-89046222D01*
X159244048Y-89046222D02*
X159244048Y-89227651D01*
X159244048Y-89227651D02*
X159183572Y-89348603D01*
X159183572Y-89348603D02*
X159123095Y-89409080D01*
X159123095Y-89409080D02*
X159002143Y-89469556D01*
X159002143Y-89469556D02*
X158518333Y-89469556D01*
X159606905Y-88804318D02*
X160030238Y-90074318D01*
X160030238Y-90074318D02*
X160453572Y-88804318D01*
X161542143Y-90074318D02*
X160816428Y-90074318D01*
X161179285Y-90074318D02*
X161179285Y-88804318D01*
X161179285Y-88804318D02*
X161058333Y-88985746D01*
X161058333Y-88985746D02*
X160937381Y-89106699D01*
X160937381Y-89106699D02*
X160816428Y-89167175D01*
D11*
X136000000Y-91454819D02*
X136333333Y-92454819D01*
X136333333Y-92454819D02*
X136666666Y-91454819D01*
X137000000Y-92454819D02*
X137000000Y-91788152D01*
X137000000Y-91454819D02*
X136952381Y-91502438D01*
X136952381Y-91502438D02*
X137000000Y-91550057D01*
X137000000Y-91550057D02*
X137047619Y-91502438D01*
X137047619Y-91502438D02*
X137000000Y-91454819D01*
X137000000Y-91454819D02*
X137000000Y-91550057D01*
X137476190Y-91788152D02*
X137476190Y-92454819D01*
X137476190Y-91883390D02*
X137523809Y-91835771D01*
X137523809Y-91835771D02*
X137619047Y-91788152D01*
X137619047Y-91788152D02*
X137761904Y-91788152D01*
X137761904Y-91788152D02*
X137857142Y-91835771D01*
X137857142Y-91835771D02*
X137904761Y-91931009D01*
X137904761Y-91931009D02*
X137904761Y-92454819D01*
X138904761Y-92454819D02*
X138333333Y-92454819D01*
X138619047Y-92454819D02*
X138619047Y-91454819D01*
X138619047Y-91454819D02*
X138523809Y-91597676D01*
X138523809Y-91597676D02*
X138428571Y-91692914D01*
X138428571Y-91692914D02*
X138333333Y-91740533D01*
X140761904Y-91502438D02*
X140666666Y-91454819D01*
X140666666Y-91454819D02*
X140523809Y-91454819D01*
X140523809Y-91454819D02*
X140380952Y-91502438D01*
X140380952Y-91502438D02*
X140285714Y-91597676D01*
X140285714Y-91597676D02*
X140238095Y-91692914D01*
X140238095Y-91692914D02*
X140190476Y-91883390D01*
X140190476Y-91883390D02*
X140190476Y-92026247D01*
X140190476Y-92026247D02*
X140238095Y-92216723D01*
X140238095Y-92216723D02*
X140285714Y-92311961D01*
X140285714Y-92311961D02*
X140380952Y-92407200D01*
X140380952Y-92407200D02*
X140523809Y-92454819D01*
X140523809Y-92454819D02*
X140619047Y-92454819D01*
X140619047Y-92454819D02*
X140761904Y-92407200D01*
X140761904Y-92407200D02*
X140809523Y-92359580D01*
X140809523Y-92359580D02*
X140809523Y-92026247D01*
X140809523Y-92026247D02*
X140619047Y-92026247D01*
X141238095Y-92454819D02*
X141238095Y-91454819D01*
X141238095Y-91454819D02*
X141809523Y-92454819D01*
X141809523Y-92454819D02*
X141809523Y-91454819D01*
X142285714Y-92454819D02*
X142285714Y-91454819D01*
X142285714Y-91454819D02*
X142523809Y-91454819D01*
X142523809Y-91454819D02*
X142666666Y-91502438D01*
X142666666Y-91502438D02*
X142761904Y-91597676D01*
X142761904Y-91597676D02*
X142809523Y-91692914D01*
X142809523Y-91692914D02*
X142857142Y-91883390D01*
X142857142Y-91883390D02*
X142857142Y-92026247D01*
X142857142Y-92026247D02*
X142809523Y-92216723D01*
X142809523Y-92216723D02*
X142761904Y-92311961D01*
X142761904Y-92311961D02*
X142666666Y-92407200D01*
X142666666Y-92407200D02*
X142523809Y-92454819D01*
X142523809Y-92454819D02*
X142285714Y-92454819D01*
X143809523Y-92454819D02*
X143238095Y-92454819D01*
X143523809Y-92454819D02*
X143523809Y-91454819D01*
X143523809Y-91454819D02*
X143428571Y-91597676D01*
X143428571Y-91597676D02*
X143333333Y-91692914D01*
X143333333Y-91692914D02*
X143238095Y-91740533D01*
X134833333Y-89954819D02*
X134500000Y-89478628D01*
X134261905Y-89954819D02*
X134261905Y-88954819D01*
X134261905Y-88954819D02*
X134642857Y-88954819D01*
X134642857Y-88954819D02*
X134738095Y-89002438D01*
X134738095Y-89002438D02*
X134785714Y-89050057D01*
X134785714Y-89050057D02*
X134833333Y-89145295D01*
X134833333Y-89145295D02*
X134833333Y-89288152D01*
X134833333Y-89288152D02*
X134785714Y-89383390D01*
X134785714Y-89383390D02*
X134738095Y-89431009D01*
X134738095Y-89431009D02*
X134642857Y-89478628D01*
X134642857Y-89478628D02*
X134261905Y-89478628D01*
X135785714Y-89954819D02*
X135214286Y-89954819D01*
X135500000Y-89954819D02*
X135500000Y-88954819D01*
X135500000Y-88954819D02*
X135404762Y-89097676D01*
X135404762Y-89097676D02*
X135309524Y-89192914D01*
X135309524Y-89192914D02*
X135214286Y-89240533D01*
D12*
X131804318Y-72923332D02*
X132711461Y-72923332D01*
X132711461Y-72923332D02*
X132892889Y-72983809D01*
X132892889Y-72983809D02*
X133013842Y-73104761D01*
X133013842Y-73104761D02*
X133074318Y-73286190D01*
X133074318Y-73286190D02*
X133074318Y-73407142D01*
X131925270Y-72379047D02*
X131864794Y-72318571D01*
X131864794Y-72318571D02*
X131804318Y-72197618D01*
X131804318Y-72197618D02*
X131804318Y-71895237D01*
X131804318Y-71895237D02*
X131864794Y-71774285D01*
X131864794Y-71774285D02*
X131925270Y-71713809D01*
X131925270Y-71713809D02*
X132046222Y-71653332D01*
X132046222Y-71653332D02*
X132167175Y-71653332D01*
X132167175Y-71653332D02*
X132348603Y-71713809D01*
X132348603Y-71713809D02*
X133074318Y-72439523D01*
X133074318Y-72439523D02*
X133074318Y-71653332D01*
X156304318Y-72923332D02*
X157211461Y-72923332D01*
X157211461Y-72923332D02*
X157392889Y-72983809D01*
X157392889Y-72983809D02*
X157513842Y-73104761D01*
X157513842Y-73104761D02*
X157574318Y-73286190D01*
X157574318Y-73286190D02*
X157574318Y-73407142D01*
X156304318Y-72439523D02*
X156304318Y-71653332D01*
X156304318Y-71653332D02*
X156788127Y-72076666D01*
X156788127Y-72076666D02*
X156788127Y-71895237D01*
X156788127Y-71895237D02*
X156848603Y-71774285D01*
X156848603Y-71774285D02*
X156909080Y-71713809D01*
X156909080Y-71713809D02*
X157030032Y-71653332D01*
X157030032Y-71653332D02*
X157332413Y-71653332D01*
X157332413Y-71653332D02*
X157453365Y-71713809D01*
X157453365Y-71713809D02*
X157513842Y-71774285D01*
X157513842Y-71774285D02*
X157574318Y-71895237D01*
X157574318Y-71895237D02*
X157574318Y-72258094D01*
X157574318Y-72258094D02*
X157513842Y-72379047D01*
X157513842Y-72379047D02*
X157453365Y-72439523D01*
%TO.C,Vp1*%
D13*
X147950000Y-95000000D02*
G75*
G02*
X145050000Y-95000000I-1450000J0D01*
G01*
X145050000Y-95000000D02*
G75*
G02*
X147950000Y-95000000I1450000J0D01*
G01*
%TO.C,Vs1*%
X152450000Y-95000000D02*
G75*
G02*
X149550000Y-95000000I-1450000J0D01*
G01*
X149550000Y-95000000D02*
G75*
G02*
X152450000Y-95000000I1450000J0D01*
G01*
%TO.C,RV1*%
D14*
X147560000Y-88500000D02*
G75*
G02*
X147460000Y-88500000I-50000J0D01*
G01*
X147460000Y-88500000D02*
G75*
G02*
X147560000Y-88500000I50000J0D01*
G01*
D15*
X159155000Y-87610000D02*
X159155000Y-86090000D01*
X159155000Y-86090000D02*
X157635000Y-86090000D01*
X157635000Y-90920000D02*
X148105000Y-90920000D01*
X157635000Y-87610000D02*
X159155000Y-87610000D01*
X157635000Y-86090000D02*
X157635000Y-90920000D01*
X148105000Y-90920000D02*
X148105000Y-86090000D01*
X148105000Y-86090000D02*
X157635000Y-86090000D01*
D14*
D16*
X147560000Y-88500000D02*
X147559999Y-88500000D01*
X147559999Y-88500000D01*
X147559999Y-88500000D01*
X147559999Y-88500000D01*
X147559999Y-88500000D01*
X147559999Y-88500000D01*
X147559999Y-88500000D01*
X147559999Y-88499999D01*
X147559999Y-88499999D01*
X147559999Y-88499999D01*
X147559999Y-88499999D01*
X147559999Y-88499999D01*
X147560000Y-88499999D01*
X147560000Y-88499999D01*
X147560000Y-88499999D01*
X147560000Y-88499999D01*
X147560000Y-88499999D01*
X147560000Y-88499999D01*
X147560000Y-88499999D01*
X147560000Y-88499999D01*
X147560000Y-88499999D01*
X147560000Y-88499999D01*
X147560000Y-88499999D01*
X147560000Y-88499999D01*
X147560001Y-88499999D01*
X147560001Y-88499999D01*
X147560001Y-88499999D01*
X147560001Y-88499999D01*
X147560001Y-88499999D01*
X147560001Y-88499999D01*
X147560001Y-88500000D01*
X147560001Y-88500000D01*
X147560001Y-88500000D01*
X147560001Y-88500000D01*
X147560001Y-88500000D01*
X147560001Y-88500000D01*
X147560001Y-88500000D01*
X147560000Y-88500000D01*
X147560000Y-88500000D02*
X147560001Y-88500000D01*
X147560001Y-88500000D01*
X147560001Y-88500000D01*
X147560001Y-88500000D01*
X147560001Y-88500000D01*
X147560001Y-88500000D01*
X147560001Y-88500001D01*
X147560001Y-88500001D01*
X147560001Y-88500001D01*
X147560001Y-88500001D01*
X147560001Y-88500001D01*
X147560001Y-88500001D01*
X147560001Y-88500001D01*
X147560000Y-88500001D01*
X147560000Y-88500001D01*
X147560000Y-88500001D01*
X147560000Y-88500001D01*
X147560000Y-88500001D01*
X147560000Y-88500001D01*
X147560000Y-88500001D01*
X147560000Y-88500001D01*
X147560000Y-88500001D01*
X147560000Y-88500001D01*
X147560000Y-88500001D01*
X147560000Y-88500001D01*
X147559999Y-88500001D01*
X147559999Y-88500001D01*
X147559999Y-88500001D01*
X147559999Y-88500001D01*
X147559999Y-88500001D01*
X147559999Y-88500001D01*
X147559999Y-88500000D01*
X147559999Y-88500000D01*
X147559999Y-88500000D01*
X147559999Y-88500000D01*
X147559999Y-88500000D01*
X147559999Y-88500000D01*
X147560000Y-88500000D01*
D14*
D16*
X147460000Y-88500000D02*
X147459999Y-88500000D01*
X147459999Y-88500000D01*
X147459999Y-88500000D01*
X147459999Y-88500000D01*
X147459999Y-88500000D01*
X147459999Y-88500000D01*
X147459999Y-88500000D01*
X147459999Y-88499999D01*
X147459999Y-88499999D01*
X147459999Y-88499999D01*
X147459999Y-88499999D01*
X147459999Y-88499999D01*
X147460000Y-88499999D01*
X147460000Y-88499999D01*
X147460000Y-88499999D01*
X147460000Y-88499999D01*
X147460000Y-88499999D01*
X147460000Y-88499999D01*
X147460000Y-88499999D01*
X147460000Y-88499999D01*
X147460000Y-88499999D01*
X147460000Y-88499999D01*
X147460000Y-88499999D01*
X147460000Y-88499999D01*
X147460001Y-88499999D01*
X147460001Y-88499999D01*
X147460001Y-88499999D01*
X147460001Y-88499999D01*
X147460001Y-88499999D01*
X147460001Y-88499999D01*
X147460001Y-88500000D01*
X147460001Y-88500000D01*
X147460001Y-88500000D01*
X147460001Y-88500000D01*
X147460001Y-88500000D01*
X147460001Y-88500000D01*
X147460001Y-88500000D01*
X147460000Y-88500000D01*
X147460000Y-88500000D02*
X147460001Y-88500000D01*
X147460001Y-88500000D01*
X147460001Y-88500000D01*
X147460001Y-88500000D01*
X147460001Y-88500000D01*
X147460001Y-88500000D01*
X147460001Y-88500001D01*
X147460001Y-88500001D01*
X147460001Y-88500001D01*
X147460001Y-88500001D01*
X147460001Y-88500001D01*
X147460001Y-88500001D01*
X147460001Y-88500001D01*
X147460000Y-88500001D01*
X147460000Y-88500001D01*
X147460000Y-88500001D01*
X147460000Y-88500001D01*
X147460000Y-88500001D01*
X147460000Y-88500001D01*
X147460000Y-88500001D01*
X147460000Y-88500001D01*
X147460000Y-88500001D01*
X147460000Y-88500001D01*
X147460000Y-88500001D01*
X147460000Y-88500001D01*
X147459999Y-88500001D01*
X147459999Y-88500001D01*
X147459999Y-88500001D01*
X147459999Y-88500001D01*
X147459999Y-88500001D01*
X147459999Y-88500001D01*
X147459999Y-88500000D01*
X147459999Y-88500000D01*
X147459999Y-88500000D01*
X147459999Y-88500000D01*
X147459999Y-88500000D01*
X147459999Y-88500000D01*
X147460000Y-88500000D01*
%TO.C,Vin1*%
D13*
X138950000Y-95000000D02*
G75*
G02*
X136050000Y-95000000I-1450000J0D01*
G01*
X136050000Y-95000000D02*
G75*
G02*
X138950000Y-95000000I1450000J0D01*
G01*
%TO.C,GND1*%
X143450000Y-95000000D02*
G75*
G02*
X140550000Y-95000000I-1450000J0D01*
G01*
X140550000Y-95000000D02*
G75*
G02*
X143450000Y-95000000I1450000J0D01*
G01*
%TO.C,R1*%
X130960000Y-89500000D02*
X131730000Y-89500000D01*
X139040000Y-89500000D02*
X138270000Y-89500000D01*
X131730000Y-88130000D02*
X138270000Y-88130000D01*
X138270000Y-90870000D01*
X131730000Y-90870000D01*
X131730000Y-88130000D01*
%TO.C,J2*%
D17*
X126570000Y-82500000D02*
X126570000Y-69500000D01*
X134500000Y-84000000D02*
X135000000Y-83000000D01*
X135000000Y-83000000D02*
X135500000Y-84000000D01*
X135500000Y-84000000D02*
X134500000Y-84000000D01*
%TO.C,J3*%
X153500000Y-68000000D02*
X154500000Y-68000000D01*
X154000000Y-69000000D02*
X153500000Y-68000000D01*
X154500000Y-68000000D02*
X154000000Y-69000000D01*
X162430000Y-69500000D02*
X162430000Y-82500000D01*
%TD*%
M02*
